<svg width="300" height="100" viewBox="0 0 300 100" xmlns="http://www.w3.org/2000/svg">
  <!-- Network Icon -->
  <g transform="translate(20, 20)">
    <!-- Central nodes -->
    <circle cx="30" cy="15" r="5" fill="#F59E0B"/>
    <circle cx="50" cy="15" r="5" fill="#F59E0B"/>
    <circle cx="20" cy="35" r="5" fill="#F59E0B"/>
    <circle cx="40" cy="35" r="5" fill="#F59E0B"/>
    <circle cx="60" cy="35" r="5" fill="#F59E0B"/>
    <circle cx="30" cy="55" r="5" fill="#F59E0B"/>
    <circle cx="50" cy="55" r="5" fill="#F59E0B"/>

    <!-- Connecting lines -->
    <path d="M 30 15 Q 40 25 50 15" fill="none" stroke="#F59E0B" stroke-width="3"/>
    <path d="M 20 35 Q 30 25 40 35" fill="none" stroke="#F59E0B" stroke-width="3"/>
    <path d="M 40 35 Q 50 25 60 35" fill="none" stroke="#F59E0B" stroke-width="3"/>
    <path d="M 30 55 Q 40 45 50 55" fill="none" stroke="#F59E0B" stroke-width="4"/>
    <line x1="30" y1="15" x2="20" y2="35" stroke="#F59E0B" stroke-width="2"/>
    <line x1="50" y1="15" x2="60" y2="35" stroke="#F59E0B" stroke-width="2"/>
    <line x1="20" y1="35" x2="30" y2="55" stroke="#F59E0B" stroke-width="2"/>
    <line x1="60" y1="35" x2="50" y2="55" stroke="#F59E0B" stroke-width="2"/>
  </g>

  <!-- Text -->
  <text x="100" y="45" font-family="Arial, sans-serif" font-size="28" font-weight="bold" fill="#F59E0B">AUREON</text>
  <text x="220" y="45" font-family="Arial, sans-serif" font-size="28" font-weight="bold" fill="#3B82F6">CARE</text>
  <text x="100" y="65" font-family="Arial, sans-serif" font-size="10" fill="#6B7280">Empowering Healthcare Solutions</text>
</svg>
